<svg width="512" height="512" viewBox="0 0 512 512" fill="none" xmlns="http://www.w3.org/2000/svg">
<path d="M437.778 371.323V330.162C447.266 307.15 452.5 281.936 452.5 255.5C452.5 229.064 447.266 203.85 437.778 180.838V136.875C437.778 101.461 409.069 72.752 373.655 72.752L327.492 72.752C305.479 64.1948 281.538 59.5 256.5 59.5C231.462 59.5 207.521 64.1948 185.508 72.752L139.207 72.752C103.793 72.752 75.0841 101.461 75.0841 136.875L75.0841 181.173C65.6832 204.095 60.5 229.192 60.5 255.5C60.5 281.808 65.6832 306.905 75.0841 329.827L75.0841 371.323C75.0841 406.737 103.793 435.446 139.207 435.446H178.686C202.54 445.775 228.851 451.5 256.5 451.5C284.149 451.5 310.46 445.775 334.314 435.446H373.655C409.069 435.446 437.778 406.737 437.778 371.323Z" fill="#713F12" stroke="black" stroke-width="35"/>
<path d="M372.392 222.682H278.116L299.066 96.9813L141.94 285.533H236.216L215.266 411.233L372.392 222.682Z" fill="#2563EB"/>
</svg>
